<svg xmlns="http://www.w3.org/2000/svg" id="Группа_2" width="80" height="11.43" data-name="Группа 2"><defs><style>.cls-2{fill-rule:evenodd;fill:#f1df1a}</style></defs><path id="i" fill="#f2e125" fill-rule="evenodd" d="M787.5 1835.17q-1.07-2.9-1.54-4.26l-1.48 4.26-3.03.08-1.47.05 3.62 2.7c-.85 2.83-1.27 4.27-1.28 4.34q3.64-2.6 3.7-2.6l3.7 2.55q-.65-2.12-1.3-4.32l3.56-2.74q-1.96-.06-4.48-.06z" transform="translate(-779.97 -1830.91)"/><path id="i_copy_6" d="M804.5 1835.17q-1.07-2.9-1.54-4.26l-1.48 4.26-3.03.08-1.47.05 3.62 2.7c-.85 2.83-1.27 4.27-1.28 4.34q3.64-2.6 3.7-2.6l3.7 2.55q-.65-2.12-1.3-4.32l3.56-2.74q-1.96-.06-4.48-.06z" class="cls-2" data-name="i copy 6" transform="translate(-779.97 -1830.91)"/><path id="i_copy_7" d="M821.5 1835.17q-1.07-2.9-1.54-4.26l-1.48 4.26-3.03.08-1.47.05 3.62 2.7c-.85 2.83-1.27 4.27-1.28 4.34q3.64-2.6 3.7-2.6l3.7 2.55q-.65-2.12-1.3-4.32l3.56-2.74q-1.96-.06-4.48-.06z" class="cls-2" data-name="i copy 7" transform="translate(-779.97 -1830.91)"/><path id="i_copy_8" d="M838.5 1835.17q-1.07-2.9-1.54-4.26l-1.48 4.26-3.03.08-1.47.05 3.62 2.7c-.85 2.83-1.27 4.27-1.28 4.34q3.64-2.6 3.7-2.6l3.7 2.55q-.65-2.12-1.3-4.32l3.56-2.74q-1.96-.06-4.48-.06z" class="cls-2" data-name="i copy 8" transform="translate(-779.97 -1830.91)"/><path id="i_copy_9" d="M855.5 1835.17q-1.07-2.9-1.54-4.26l-1.48 4.26-3.03.08-1.47.05 3.62 2.7c-.85 2.83-1.27 4.27-1.28 4.34q3.64-2.6 3.7-2.6l3.7 2.55q-.65-2.12-1.3-4.32l3.56-2.74q-1.96-.06-4.48-.06z" class="cls-2" data-name="i copy 9" transform="translate(-779.97 -1830.91)"/></svg>